<svg width="444" height="25" viewBox="0 0 444 25" fill="none" xmlns="http://www.w3.org/2000/svg">
<path d="M38.5866 19.8677V23.6579H36.2V11.7104H55.9614C57.8979 11.7104 58.8662 12.6442 58.8662 14.5256V16.8739C58.9374 17.2744 58.9131 17.6863 58.7952 18.0754C58.6774 18.4646 58.4694 18.82 58.1884 19.1124C57.9073 19.4048 57.5613 19.6257 57.1789 19.757C56.7964 19.8883 56.3885 19.9263 55.9886 19.8677H38.5866ZM55.5522 14.0862H38.5866V17.4232L55.634 17.3958C56.2068 17.3958 56.4932 17.0799 56.4932 16.4619V15.0063C56.5161 14.8779 56.5073 14.7458 56.4676 14.6217C56.4279 14.4975 56.3586 14.3851 56.2657 14.2942C56.1728 14.2034 56.0591 14.1369 55.9347 14.1006C55.8103 14.0643 55.679 14.0594 55.5522 14.0862Z" fill="#201600"/>
<path d="M75.3955 23.5893H72.5588V14.0999H60.7347V11.628H87.165V14.0587H75.3955V23.5893Z" fill="#201600"/>
<path d="M91.911 23.5893C91.5258 23.6443 91.1331 23.6083 90.764 23.4842C90.395 23.3601 90.0596 23.1512 89.7845 22.8742C89.5094 22.5971 89.302 22.2595 89.1787 21.8878C89.0555 21.5162 89.0197 21.1208 89.0743 20.7329V14.5668C89.0178 14.1809 89.0512 13.7871 89.172 13.4165C89.2928 13.0459 89.4975 12.7087 89.7701 12.4316C90.0427 12.1544 90.3756 11.945 90.7424 11.8198C91.1093 11.6946 91.5 11.6572 91.8838 11.7104H108.822C109.215 11.6546 109.616 11.6921 109.992 11.8198C110.369 11.9475 110.71 12.1619 110.99 12.446C111.269 12.7301 111.479 13.076 111.602 13.4561C111.725 13.8362 111.759 14.2401 111.7 14.6355V20.7878C111.744 21.1591 111.703 21.5356 111.582 21.8889C111.46 22.2423 111.26 22.5632 110.998 22.8276C110.735 23.0921 110.417 23.293 110.066 23.4155C109.715 23.5379 109.341 23.5785 108.972 23.5344L91.911 23.5893ZM109.368 20.2797V15.0887C109.368 14.4295 109.054 14.0862 108.427 14.0862H92.4566C92.329 14.0659 92.1985 14.0759 92.0754 14.1152C91.9523 14.1545 91.84 14.2222 91.7474 14.3128C91.6548 14.4034 91.5844 14.5145 91.5418 14.6372C91.4992 14.76 91.4855 14.891 91.5019 15.02V20.2385C91.4765 20.372 91.4832 20.5098 91.5215 20.6402C91.5598 20.7706 91.6286 20.8899 91.722 20.9881C91.8155 21.0862 91.931 21.1604 92.0588 21.2044C92.1866 21.2484 92.323 21.2609 92.4566 21.241H108.454C108.582 21.2581 108.711 21.2447 108.833 21.2017C108.954 21.1588 109.064 21.0876 109.153 20.994C109.242 20.9003 109.308 20.7868 109.345 20.6627C109.383 20.5385 109.39 20.4073 109.368 20.2797Z" fill="#201600"/>
<path d="M115.996 14.3745V23.5343H113.636V11.628H116.009L133.93 20.7191V11.7104H136.303V23.5618H133.889L115.996 14.3745Z" fill="#201600"/>
<path d="M4.12344 24.1935C3.56867 24.2681 3.00429 24.213 2.47412 24.0323C1.94396 23.8517 1.46229 23.5504 1.06652 23.1519C0.670757 22.7533 0.37155 22.2683 0.192142 21.7345C0.0127334 21.2006 -0.0420464 20.6323 0.032057 20.0737V11.1199C0.032057 8.37328 1.39585 7 4.12344 7H28.699C31.4266 7 32.8723 8.37328 32.8723 11.2297V20.1423C32.8723 22.8889 31.5085 24.166 28.7809 24.166L4.12344 24.1935ZM29.4355 19.387V11.8752C29.4355 10.9139 28.9854 10.5019 28.0717 10.5019H4.88717C4.7017 10.4741 4.51234 10.4904 4.33428 10.5496C4.15621 10.6088 3.99439 10.7091 3.8618 10.8427C3.72921 10.9762 3.62953 11.1391 3.57076 11.3184C3.51199 11.4977 3.49576 11.6884 3.52337 11.8752V19.3458C3.50144 19.5315 3.52163 19.7197 3.58241 19.8964C3.6432 20.0731 3.74299 20.2335 3.87428 20.3658C4.00558 20.498 4.16495 20.5984 4.3404 20.6597C4.51584 20.7209 4.70279 20.7412 4.88717 20.7191H28.0717C28.2538 20.7484 28.4402 20.7345 28.6161 20.6785C28.7919 20.6226 28.9524 20.5262 29.0848 20.3969C29.2172 20.2676 29.3178 20.109 29.3787 19.9337C29.4395 19.7584 29.459 19.5712 29.4355 19.387Z" fill="#D24A43"/>
<path d="M183 24H160V12H183V14.3883H162.423V16.7961H183V19.1845H162.423V21.7087H183V24Z" fill="#201600"/>
<path d="M187.504 14.8349V24H185V12H187.504L206.476 21.1068V12.1165H209V23.9806H206.435L187.504 14.8349Z" fill="#201600"/>
<path d="M222.033 19.1908V16.8072H233.974V21.0469C234.03 21.4362 233.996 21.8332 233.875 22.2075C233.754 22.5818 233.55 22.9234 233.277 23.2062C233.005 23.4891 232.671 23.7056 232.303 23.8393C231.934 23.973 231.539 24.0202 231.149 23.9775H213.91C213.516 24.0301 213.115 23.9902 212.738 23.8609C212.362 23.7316 212.021 23.5164 211.741 23.2324C211.462 22.9483 211.252 22.6031 211.128 22.2238C211.004 21.8446 210.97 21.4417 211.028 21.0469V14.8925C210.97 14.5072 211.003 14.1138 211.122 13.7432C211.242 13.3727 211.446 13.035 211.718 12.7567C211.99 12.4784 212.322 12.2671 212.689 12.1393C213.056 12.0116 213.447 11.9709 213.833 12.0205H233.974V14.4041H214.378C213.755 14.4041 213.443 14.7558 213.443 15.4396V20.617C213.443 21.2618 213.755 21.5939 214.378 21.5939H230.643C230.774 21.6103 230.907 21.5962 231.031 21.5526C231.156 21.509 231.269 21.4371 231.361 21.3426C231.454 21.248 231.523 21.1334 231.564 21.0075C231.605 20.8817 231.616 20.748 231.597 20.617V19.1908H222.033Z" fill="#201600"/>
<path d="M243.382 14.8349V24H241V12H243.382L261.579 21.1068V12.1165H264V23.9806H261.559L243.382 14.8349Z" fill="#201600"/>
<path d="M289 24H266V12H289V14.3883H268.423V16.7961H289V19.1845H268.423V21.7087H289V24Z" fill="#201600"/>
<path d="M315 24H291V12H315V14.3883H293.528V16.7961H315V19.1845H293.528V21.7087H315V24Z" fill="#201600"/>
<path d="M339.997 24H336.964L333.931 20.093H318.524V24H316V12.0251H337.005C337.406 11.9703 337.816 12.0056 338.201 12.1282C338.586 12.2509 338.937 12.4575 339.225 12.732C339.513 13.0064 339.73 13.3412 339.861 13.71C339.991 14.0789 340.031 14.4717 339.976 14.8577V17.2995C340.031 17.6925 339.99 18.0923 339.857 18.4675C339.723 18.8427 339.5 19.1829 339.206 19.4613C338.912 19.7398 338.555 19.9489 338.162 20.072C337.769 20.1952 337.352 20.2292 336.944 20.1712L339.997 24ZM336.394 14.4279H318.524V17.7879H336.476C337.147 17.7879 337.473 17.4558 337.473 16.7721V15.3851C337.493 14.7405 337.127 14.4279 336.394 14.4279Z" fill="#201600"/>
<path d="M342 24V12H345V23.9221L342 24Z" fill="#201600"/>
<path d="M349.38 14.7752V24H347V12H349.399L367.581 21.1661V12.0391H370V23.9805H367.581L349.38 14.7752Z" fill="#201600"/>
<path d="M383.025 19.1894V16.8071H394.97V21.0444C395.031 21.4379 394.999 21.8403 394.878 22.2196C394.757 22.5989 394.549 22.9445 394.27 23.2289C393.992 23.5134 393.652 23.7288 393.276 23.8581C392.9 23.9873 392.499 24.0268 392.105 23.9734H374.899C374.504 24.0311 374.102 23.9946 373.724 23.8669C373.346 23.7391 373.003 23.5237 372.724 23.2383C372.445 22.9528 372.237 22.6053 372.117 22.2241C371.997 21.8429 371.969 21.4387 372.034 21.0444V14.8935C371.976 14.5066 372.009 14.1114 372.13 13.7394C372.251 13.3673 372.456 13.0286 372.731 12.75C373.005 12.4715 373.34 12.2607 373.71 12.1346C374.079 12.0084 374.473 11.9702 374.86 12.0231H394.97V14.4054H375.367C374.762 14.4054 374.451 14.7568 374.451 15.4403V20.6148C374.451 21.2592 374.762 21.5912 375.367 21.5912H391.657C391.787 21.6084 391.92 21.5947 392.044 21.5511C392.168 21.5075 392.28 21.4353 392.371 21.3402C392.462 21.2452 392.53 21.13 392.568 21.004C392.606 20.878 392.615 20.7446 392.592 20.6148V19.1894H383.025Z" fill="#201600"/>
<path d="M236 24V12H239V23.9221L236 24Z" fill="#201600"/>
<path d="M386 17H380V19H386V17Z" fill="#201600"/>
<path d="M438.143 4.88888H437.447C437.447 4.82158 437.434 4.75497 437.407 4.69313C437.381 4.63128 437.342 4.57551 437.294 4.52922C437.245 4.48294 437.188 4.44711 437.125 4.42395C437.062 4.40078 436.996 4.39076 436.929 4.3945V3.69413C437.087 3.69047 437.244 3.71867 437.391 3.77707C437.539 3.83547 437.673 3.92289 437.786 4.0342C437.899 4.14551 437.989 4.27846 438.05 4.42524C438.111 4.57201 438.143 4.72965 438.143 4.88888Z" fill="#201600"/>
<path d="M429.114 1.19476H428.405C428.408 0.885919 428.529 0.590024 428.742 0.367833C428.955 0.145643 429.244 0.0140223 429.551 0L432.565 0C432.876 0.00710443 433.172 0.135685 433.391 0.358602C433.61 0.581518 433.734 0.881331 433.738 1.19476H433.029C433.029 1.06364 432.977 0.937891 432.885 0.845176C432.793 0.752461 432.668 0.700375 432.538 0.700375H429.605C429.475 0.700375 429.35 0.752461 429.258 0.845176C429.166 0.937891 429.114 1.06364 429.114 1.19476Z" fill="#201600"/>
<path d="M433.724 1.19475H433.029V3.19974H433.724V1.19475Z" fill="#201600"/>
<path d="M434.201 4.3945C434.044 4.39632 433.889 4.36675 433.743 4.30753C433.598 4.2483 433.465 4.16058 433.354 4.04946C433.242 3.93833 433.153 3.80601 433.093 3.66015C433.032 3.51429 433.001 3.3578 433.001 3.19974H433.71C433.71 3.33086 433.762 3.45661 433.854 3.54932C433.946 3.64204 434.071 3.69412 434.201 3.69412V4.3945Z" fill="#201600"/>
<path d="M436.956 3.69414H434.229V4.39451H436.956V3.69414Z" fill="#201600"/>
<path d="M438.143 4.88888H437.447V18.965H438.143V4.88888Z" fill="#201600"/>
<path d="M438.538 20.4345C438.339 20.4405 438.143 20.3828 437.979 20.2697C437.782 20.1047 437.63 19.8922 437.537 19.6521C437.444 19.4119 437.413 19.1519 437.447 18.8964H438.143C438.143 19.2946 438.143 19.5418 438.347 19.6242C438.552 19.7066 438.825 19.6242 439.22 19.4732L439.52 20.1186C439.218 20.2912 438.884 20.3987 438.538 20.4345Z" fill="#201600"/>
<path d="M442.22 17.3858H427.314V18.0862H442.22V17.3858Z" fill="#201600"/>
<path d="M442.222 18.0941L439.215 19.5277L439.512 20.1608L442.52 18.7272L442.222 18.0941Z" fill="#201600"/>
<path d="M442.521 18.7453L442.207 18.0999V17.3995C442.902 17.3995 443.052 17.784 443.08 17.9076C443.107 18.0312 443.148 18.4295 442.521 18.7453Z" fill="#201600"/>
<path d="M429.114 1.19475H428.419V10.1348H429.114V1.19475Z" fill="#201600"/>
<path d="M431.624 4.90263H430.928V10.0936H431.624V4.90263Z" fill="#201600"/>
<path d="M431.624 4.90262H430.928C430.928 4.7715 430.877 4.64575 430.784 4.55303C430.692 4.46032 430.568 4.40823 430.437 4.40823V3.70786C430.752 3.70786 431.054 3.83373 431.276 4.0578C431.499 4.28186 431.624 4.58575 431.624 4.90262Z" fill="#201600"/>
<path d="M430.437 3.70786H423.741V4.40823H430.437V3.70786Z" fill="#201600"/>
<path d="M423.291 4.90262H422.582C422.582 4.58575 422.707 4.28186 422.929 4.0578C423.152 3.83373 423.454 3.70786 423.768 3.70786V4.40823C423.641 4.41181 423.519 4.46547 423.43 4.5578C423.341 4.65013 423.291 4.77384 423.291 4.90262Z" fill="#201600"/>
<path d="M423.25 4.90263H422.555V19.8302H423.25V4.90263Z" fill="#201600"/>
<path d="M430.505 11.206V10.5056C430.618 10.5056 430.725 10.4608 430.804 10.3809C430.884 10.3011 430.928 10.1928 430.928 10.0799H431.624C431.624 10.3786 431.506 10.665 431.296 10.8762C431.087 11.0873 430.802 11.206 430.505 11.206Z" fill="#201600"/>
<path d="M429.524 11.206C429.229 11.2024 428.948 11.0821 428.742 10.8714C428.535 10.6606 428.419 10.3762 428.419 10.0799H429.114C429.113 10.1351 429.122 10.1902 429.142 10.2418C429.161 10.2934 429.191 10.3404 429.229 10.3801C429.267 10.4199 429.313 10.4514 429.364 10.473C429.414 10.4946 429.469 10.5056 429.524 10.5056V11.206Z" fill="#201600"/>
<path d="M430.519 10.4919H429.51V11.1923H430.519V10.4919Z" fill="#201600"/>
<path d="M430.383 10.9725H429.687V13.9114H430.383V10.9725Z" fill="#201600"/>
<path d="M428.569 15.7653H427.86C427.86 15.4666 427.978 15.1802 428.187 14.969C428.397 14.7578 428.681 14.6392 428.978 14.6392V15.3396C428.923 15.3395 428.869 15.3506 428.818 15.3722C428.768 15.3938 428.722 15.4253 428.684 15.4651C428.646 15.5048 428.616 15.5518 428.596 15.6034C428.576 15.655 428.567 15.71 428.569 15.7653Z" fill="#201600"/>
<path d="M431.201 14.6392H428.978V15.3396H431.201V14.6392Z" fill="#201600"/>
<path d="M428.978 17.0425C428.684 17.0425 428.401 16.9257 428.192 16.7175C427.983 16.5093 427.863 16.2264 427.86 15.9301H428.569C428.569 15.9842 428.58 16.0378 428.6 16.0878C428.621 16.1377 428.651 16.1832 428.689 16.2214C428.727 16.2597 428.772 16.29 428.821 16.3107C428.871 16.3314 428.924 16.3421 428.978 16.3421V17.0425Z" fill="#201600"/>
<path d="M426.469 18.3333L426.182 17.6879H426.264C426.59 17.5234 426.949 17.4342 427.314 17.427V18.1273C427.051 18.1332 426.794 18.204 426.564 18.3333H426.469Z" fill="#201600"/>
<path d="M428.555 15.7516H427.86V15.9301H428.555V15.7516Z" fill="#201600"/>
<path d="M431.187 16.3421H428.964V17.0424H431.187V16.3421Z" fill="#201600"/>
<path d="M431.201 17.0425V16.3421C431.308 16.3386 431.411 16.2941 431.487 16.2176C431.563 16.1411 431.607 16.0383 431.61 15.9301H432.306C432.306 16.0762 432.277 16.2208 432.222 16.3558C432.166 16.4907 432.085 16.6134 431.982 16.7167C431.88 16.8199 431.758 16.9019 431.624 16.9578C431.49 17.0137 431.346 17.0425 431.201 17.0425Z" fill="#201600"/>
<path d="M432.306 15.7653H431.61C431.61 15.6547 431.568 15.5485 431.491 15.469C431.415 15.3896 431.311 15.3431 431.201 15.3396V14.6392C431.495 14.6428 431.776 14.7631 431.983 14.9738C432.19 15.1846 432.306 15.469 432.306 15.7653Z" fill="#201600"/>
<path d="M432.306 15.7516H431.61V19.8302H432.306V15.7516Z" fill="#201600"/>
<path d="M431.215 20.2422H423.659V20.9426H431.215V20.2422Z" fill="#201600"/>
<path d="M431.201 20.9563V20.2422C431.31 20.2422 431.414 20.1988 431.49 20.1215C431.567 20.0443 431.61 19.9395 431.61 19.8302H432.306C432.306 20.1265 432.19 20.4109 431.983 20.6217C431.776 20.8325 431.495 20.9527 431.201 20.9563Z" fill="#201600"/>
<path d="M423.673 20.9563C423.376 20.9563 423.092 20.8377 422.882 20.6265C422.672 20.4153 422.555 20.1289 422.555 19.8302H423.291C423.291 19.8855 423.302 19.9402 423.323 19.9911C423.345 20.042 423.376 20.0881 423.416 20.1265C423.455 20.1649 423.502 20.195 423.553 20.2149C423.604 20.2348 423.659 20.244 423.714 20.2422L423.673 20.9563Z" fill="#201600"/>
<path d="M426.191 17.6893L415.551 22.724L415.847 23.3578L426.487 18.3232L426.191 17.6893Z" fill="#201600"/>
<path d="M415.872 24.0737C415.176 24.0737 415.04 23.6891 415.013 23.5655C414.985 23.4419 414.945 23.03 415.572 22.7141L415.872 23.3595V24.0737Z" fill="#201600"/>
<path d="M441.961 23.3733H415.872V24.0737H441.961V23.3733Z" fill="#201600"/>
<path d="M442.289 23.7166C442.285 23.8089 442.246 23.8962 442.18 23.9603C442.114 24.0243 442.026 24.06 441.934 24.0599C441.844 24.0599 441.757 24.0238 441.693 23.9594C441.629 23.895 441.593 23.8077 441.593 23.7166C441.593 23.6256 441.629 23.5382 441.693 23.4738C441.757 23.4095 441.844 23.3733 441.934 23.3733C442.026 23.3732 442.114 23.4089 442.18 23.473C442.246 23.537 442.285 23.6243 442.289 23.7166Z" fill="#201600"/>
</svg>
