<svg width="24" height="24" viewBox="0 0 24 24" fill="none" xmlns="http://www.w3.org/2000/svg">
<path fill-rule="evenodd" clip-rule="evenodd" d="M16.1159 5.50141H7.8842C6.57046 5.50141 5.50141 6.5704 5.50141 7.8842V16.1158C5.50141 17.4298 6.57046 18.4989 7.8842 18.4989H16.1159C17.4298 18.4989 18.4989 17.4298 18.4989 16.1158V7.8842C18.4989 6.57046 17.4298 5.50141 16.1159 5.50141ZM11.9999 16.2787C9.64081 16.2787 7.72128 14.3592 7.72128 11.9999C7.72128 9.64081 9.64081 7.72128 11.9999 7.72128C14.3592 7.72128 16.2787 9.64081 16.2787 11.9999C16.2787 14.3592 14.3592 16.2787 11.9999 16.2787ZM16.4164 8.60604C15.8579 8.60604 15.4037 8.15189 15.4037 7.59369C15.4037 7.03543 15.8579 6.58127 16.4164 6.58127C16.9746 6.58127 17.4287 7.03543 17.4287 7.59369C17.4287 8.15196 16.9746 8.60604 16.4164 8.60604Z" fill="white"/>
<path fill-rule="evenodd" clip-rule="evenodd" d="M11.9999 9.52952C10.638 9.52952 9.52899 10.638 9.52899 11.9999C9.52899 13.3623 10.638 14.471 11.9999 14.471C13.3623 14.471 14.4705 13.3623 14.4705 11.9999C14.4705 10.638 13.3623 9.52952 11.9999 9.52952Z" fill="white"/>
<path fill-rule="evenodd" clip-rule="evenodd" d="M0 0V24H24V0H0ZM20.3066 16.1158C20.3066 18.427 18.427 20.3066 16.1159 20.3066H7.8842C5.57328 20.3066 3.69336 18.427 3.69336 16.1158V7.8842C3.69336 5.57328 5.57328 3.69336 7.8842 3.69336H16.1159C18.427 3.69336 20.3066 5.57328 20.3066 7.8842V16.1158Z" fill="white"/>
</svg>
